Coordinates
version=1
nRows=27
nColumns=12
inDegrees=yes

Units are S.I. units (second, meters, Newtons, ...)
Angles are in degrees

endheader
time	SC_y	SC_z	SC_x	AC_y	AC_z	AC_x	GH_y	GH_z	GH_yy	EL_x	PS_y
       0.0              -12.82          12.64          31.23          36.82          9.261         -16.08          3.652          35.39          69.58           54.2          6.962
   0.04015              -12.82          12.64          31.24          36.82          9.261         -16.07          3.668          35.39          69.57          54.19          6.972
    0.0803              -12.82          12.64          31.24          36.82           9.26         -16.07          3.685           35.4          69.57          54.19          6.982
    0.1205              -12.83          12.64          31.24          36.83           9.26         -16.07          3.703          35.41          69.56          54.18          6.993
    0.1606              -12.83          12.65          31.25          36.83           9.26         -16.06          3.721          35.42          69.55          54.18          7.005
    0.2008              -12.84          12.65          31.25          36.83           9.26         -16.06          3.742          35.43          69.55          54.17          7.017
    0.2409              -12.84          12.65          31.26          36.84           9.26         -16.05          3.763          35.43          69.54          54.16           7.03
    0.2811              -12.85          12.66          31.26          36.84           9.26         -16.05          3.786          35.45          69.53          54.16          7.045
    0.3212              -12.85          12.66          31.27          36.84           9.26         -16.04          3.811          35.46          69.52          54.15           7.06
    0.3614              -12.86          12.67          31.27          36.85           9.26         -16.04          3.837          35.47          69.51          54.14          7.076
    0.4015              -12.86          12.67          31.28          36.85           9.26         -16.03          3.866          35.48           69.5          54.13          7.094
    0.4417              -12.87          12.68          31.29          36.86           9.26         -16.02          3.896          35.49          69.49          54.12          7.113
    0.4818              -12.88          12.68           31.3          36.86           9.26         -16.02          3.929          35.51          69.48          54.11          7.133
     0.522              -12.88          12.69           31.3          36.87           9.26         -16.01          3.964          35.52          69.46           54.1          7.155
    0.5621              -12.89          12.69          31.31          36.88          9.259          -16.0          4.003          35.54          69.45          54.09          7.179
    0.6023               -12.9           12.7          31.32          36.88          9.259         -15.99          4.045          35.56          69.44          54.08          7.205
    0.6424              -12.91          12.71          31.33          36.89          9.259         -15.98           4.09          35.58          69.42          54.07          7.233
    0.6826              -12.92          12.72          31.35           36.9          9.259         -15.97          4.139           35.6           69.4          54.05          7.263
    0.7227              -12.93          12.72          31.36          36.91          9.259         -15.96          4.193          35.62          69.38          54.03          7.297
    0.7629              -12.95          12.73          31.37          36.91          9.259         -15.94          4.252          35.65          69.36          54.02          7.333
     0.803              -12.96          12.74          31.39          36.93          9.259         -15.93          4.317          35.68          69.34           54.0          7.373
    0.8432              -12.98          12.76           31.4          36.94          9.258         -15.91          4.389          35.71          69.31          53.98          7.418
    0.8833               -13.0          12.77          31.42          36.95          9.258          -15.9          4.467          35.74          69.28          53.95          7.466
    0.9235              -13.01          12.78          31.44          36.96          9.258         -15.88          4.555          35.78          69.25          53.93          7.521
    0.9636              -13.04           12.8          31.47          36.98          9.257         -15.85          4.652          35.82          69.21           53.9          7.581
     1.004              -13.06          12.82          31.49           37.0          9.257         -15.83           4.76          35.87          69.17          53.87          7.648
     1.044              -13.09          12.84          31.52          37.02          9.257          -15.8          4.881          35.92          69.13          53.83          7.723
